<svg xmlns="http://www.w3.org/2000/svg" version="1.1" xmlns:xlink="http://www.w3.org/1999/xlink" width="259.87" height="269.47"><svg id="SvgjsSvg1027" xmlns="http://www.w3.org/2000/svg" viewBox="0 0 259.87 269.47"><defs><style>.cls-1{fill:#50c2fa;}.cls-2{fill:#002536;}</style></defs><circle class="cls-2" cx="129.93" cy="134.73" r="123.02"></circle><path class="cls-1" d="M177.6,155.21c-2.28-3.36-3.96-6.77-5.16-9.6,20.89-7.25,25.44-18.9,25.44-27.66,0-9.39-5.19-21.94-29.92-28.39-12.66-3.3-25.12-3.61-25.64-3.62l-8.45-.18v48.98h-8.48v-48.98l-8.45.18c-.52.01-12.98.31-25.64,3.62-24.73,6.45-29.92,19-29.92,28.39,0,8.76,4.55,20.41,25.44,27.66-1.19,2.83-2.88,6.24-5.16,9.6-6.6,9.74-15.1,14.71-25.28,14.76l.09,16.39c15.87-.09,29.38-7.85,39.08-22.44,3.44-5.17,5.79-10.34,7.31-14.29,2.17.38,4.19.67,5.98.9v35.73h16.54v-34.98h8.48v34.98h16.54v-35.73c1.79-.23,3.81-.52,5.98-.9,1.52,3.95,3.87,9.12,7.31,14.29,9.7,14.59,23.21,22.36,39.08,22.44l.09-16.39c-10.17-.06-18.68-5.02-25.28-14.76ZM108.86,133.83c-3.91-.57-8.72-1.46-13.46-2.85-6.52-1.91-17.47-6.14-17.47-13.04s10.85-10.62,17.32-12.33c4.8-1.27,9.67-2.03,13.6-2.49v30.7ZM150.42,103.14c3.94.45,8.81,1.22,13.6,2.48,6.47,1.71,17.32,5.59,17.32,12.33,0,8.92-17.62,13.96-30.93,15.91v-30.73Z"></path></svg><style>@media (prefers-color-scheme: light) { :root { filter: contrast(1) brightness(1); } }
@media (prefers-color-scheme: dark) { :root { filter: contrast(1) brightness(1.2); } }
</style></svg>