<?xml version="1.0" encoding="UTF-8"?><svg id="Layer_1" xmlns="http://www.w3.org/2000/svg" xmlns:xlink="http://www.w3.org/1999/xlink" viewBox="0 0 663.47 269.47"><defs><style>.cls-1{fill:none;}.cls-2{fill:#ebeade;}.cls-3{clip-path:url(#clippath-1);}.cls-4{clip-path:url(#clippath-2);}.cls-5{fill:#50c2fa;}.cls-6{opacity:.79;}.cls-7{clip-path:url(#clippath);}</style><clipPath id="clippath"><rect class="cls-1" x="-167.58" y="-1467.61" width="928.9" height="434.48"/></clipPath><clipPath id="clippath-1"><rect class="cls-1" x="-165.89" y="-1917.19" width="2828.71" height="1555.61"/></clipPath><clipPath id="clippath-2"><rect class="cls-1" x="113.79" y="-1917.19" width="2828.71" height="1555.61"/></clipPath></defs><g class="cls-7"><g class="cls-3"><image width="4500" height="3000" transform="translate(-198.56 -1934.14) scale(.65 .67)" xlink:href="8vo/PT II/Elementos_Diseño/Fractal-Glass-Gradients/Product Files/4.jpg"/></g><g class="cls-6"><g class="cls-4"><image width="4345" height="4474" transform="translate(3391.4 -2376.38) rotate(90) scale(.58 .83)" xlink:href="8vo/PT II/Elementos_Diseño/Displaced Gradient Spheres/9.png"/></g></g></g><path class="cls-5" d="M14.84,115.92h17.81c5.99,0,8.71.47,11.12,1.56,5.52,2.49,9.02,7.77,9.02,15.08,0,6.61-3.5,12.75-9.33,15.09v.16s.78.77,1.86,2.72l11.35,20.61h-11.2l-10.96-20.61h-9.64v20.61h-10.03v-55.21ZM33.89,141.82c5.36,0,8.71-3.19,8.71-8.71s-2.25-8.56-10.11-8.56h-7.62v17.27h9.02Z"/><path class="cls-5" d="M66.02,115.92h33.05v8.63h-23.01v14.47h18.58v8.63h-18.58v14.86h24.26v8.63h-34.29v-55.21Z"/><path class="cls-2" d="M111.99,156.98s5.99,5.83,13.76,5.83c4.2,0,8.01-2.17,8.01-6.69,0-9.88-26.05-8.16-26.05-25.11,0-9.17,7.93-16.02,18.51-16.02s16.48,5.91,16.48,5.91l-4.35,8.16s-5.29-4.82-12.21-4.82c-4.66,0-8.32,2.72-8.32,6.61,0,9.79,25.97,7.38,25.97,25.04,0,8.78-6.69,16.17-18.2,16.17-12.28,0-19.05-7.54-19.05-7.54l5.44-7.54Z"/><path class="cls-2" d="M153.83,115.92h10.03v55.21h-10.03v-55.21Z"/><path class="cls-2" d="M202.59,114.99c13.53,0,20.53,7,20.53,7l-4.98,7.47s-5.91-5.29-14.7-5.29c-12.36,0-18.97,8.55-18.97,18.97,0,11.97,8.16,19.74,18.51,19.74,8.32,0,13.84-5.75,13.84-5.75v-6.45h-8.48v-8.64h17.5v29.08h-8.55v-2.65c0-1.16.08-2.33.08-2.33h-.15s-5.75,5.91-16.02,5.91c-14.54,0-27.06-11.28-27.06-28.62,0-16.01,12.05-28.46,28.46-28.46Z"/><path class="cls-2" d="M236.97,115.92h10.03l20.91,31.88c2.1,3.18,4.59,8.55,4.59,8.55h.15s-.54-5.29-.54-8.55v-31.88h9.95v55.21h-9.95l-20.92-31.8c-2.1-3.19-4.59-8.55-4.59-8.55h-.15s.55,5.29.55,8.55v31.8h-10.03v-55.21Z"/><path class="cls-2" d="M296.08,115.92h10.03v55.21h-10.03v-55.21Z"/><path class="cls-2" d="M320.11,115.92h31.72v8.63h-21.69v15.63h18.27v8.64h-18.27v22.31h-10.03v-55.21Z"/><path class="cls-2" d="M361.26,115.92h10.03v55.21h-10.03v-55.21Z"/><path class="cls-2" d="M409.86,114.99c13.45,0,20.37,7.54,20.37,7.54l-4.82,7.47s-6.3-5.83-15.09-5.83c-11.66,0-18.51,8.71-18.51,18.97s7.08,19.74,18.58,19.74c9.56,0,16.02-6.99,16.02-6.99l5.29,7.23s-7.62,8.94-21.69,8.94c-16.87,0-28.54-12.52-28.54-28.77s12.13-28.3,28.38-28.3Z"/><path class="cls-2" d="M468.42,156.98h-19.36l-4.66,14.15h-10.34l19.44-55.21h10.5l19.44,55.21h-10.34l-4.66-14.15ZM458.7,125.49s-1.25,5.45-2.33,8.55l-4.9,14.78h14.46l-4.9-14.78c-1.01-3.11-2.18-8.55-2.18-8.55h-.15Z"/><path class="cls-2" d="M498.76,124.55h-18.12v-8.63h46.26v8.63h-18.12v46.58h-10.03v-46.58Z"/><path class="cls-2" d="M534.23,115.92h10.03v55.21h-10.03v-55.21Z"/><path class="cls-2" d="M551.18,115.92h10.81l12.13,36c1.09,3.19,2.02,8.09,2.1,8.09h.15c.08,0,1.01-4.9,2.1-8.09l12.21-36h10.73l-20.14,55.21h-9.95l-20.14-55.21Z"/><path class="cls-2" d="M633.62,156.98h-19.36l-4.66,14.15h-10.34l19.44-55.21h10.5l19.44,55.21h-10.34l-4.66-14.15ZM623.9,125.49s-1.25,5.45-2.33,8.55l-4.9,14.78h14.46l-4.9-14.78c-1.01-3.11-2.18-8.55-2.18-8.55h-.15Z"/></svg>