<?xml version="1.0" encoding="UTF-8"?><svg id="Layer_1" xmlns="http://www.w3.org/2000/svg" viewBox="0 0 663.47 269.47"><defs><style>.cls-1{fill:#010028;}</style></defs><path class="cls-1" d="M178.71,47.36l2.29,48.15c.1,2.09-1.51,3.86-3.6,3.96-2.21.12-4.07-1.75-3.96-3.96l2.29-48.15c.13-1.87,2.86-1.89,2.99,0h0Z"/><path class="cls-1" d="M159.77,73.14l8.54,23.05c1.57,4.77-5.2,7.29-7.12,2.64-.08-.22-.15-.46-.18-.68l-4.13-24.23c-.28-1.78,2.24-2.45,2.89-.77h0Z"/><path class="cls-1" d="M129.7,58.72l26.54,41.4c2.55,4.31-3.5,8.21-6.37,4.08-.22-.32-22.56-43.64-22.76-43.99-.83-1.68,1.53-3.06,2.58-1.49h0Z"/><path class="cls-1" d="M119.59,84.27l26.01,22.77c3.65,3.44-1.08,8.86-4.99,5.7-.13-.1-.25-.24-.35-.35l-22.77-26.01c-1.2-1.41.7-3.31,2.11-2.11h0Z"/><path class="cls-1" d="M93.97,94.23l43.14,22.26c4.36,2.45,1.08,8.86-3.47,6.72-.35-.16-40.82-26.21-41.16-26.4-1.55-1.04-.21-3.41,1.49-2.58Z"/><path class="cls-1" d="M89.89,119.07l41.47,8.74c4.86,1.21,3.39,8.26-1.56,7.41-.65-.13-40.09-13.11-40.68-13.27-1.76-.61-1.07-3.23.77-2.89h0Z"/><path class="cls-1" d="M66.99,142.52l61.74-2.29c2.08-.07,3.84,1.55,3.92,3.64.09,2.18-1.73,4.01-3.92,3.92l-61.74-2.29c-1.87-.1-1.91-2.87,0-2.99h0Z"/><path class="cls-1" d="M175.73,240.65l-2.29-48.16c-.1-2.09,1.51-3.86,3.6-3.96,2.21-.12,4.07,1.75,3.96,3.96l-2.29,48.16c-.13,1.87-2.86,1.89-2.99,0h0Z"/><path class="cls-1" d="M156.89,214.1l4.13-24.23c1.03-4.92,8.14-3.72,7.48,1.28-.04.23-.1.47-.18.68l-8.54,23.05c-.65,1.68-3.16,1.01-2.89-.77h0Z"/><path class="cls-1" d="M127.12,227.8l22.58-43.69c2.46-4.36,8.86-1.07,6.72,3.47-.16.35-26.52,41.36-26.71,41.7-1.03,1.56-3.41.21-2.58-1.49h0Z"/><path class="cls-1" d="M117.48,201.63l22.77-26.01c3.44-3.65,8.86,1.08,5.7,4.99-.1.13-.24.25-.35.35l-26.01,22.77c-1.41,1.2-3.31-.7-2.11-2.11h0Z"/><path class="cls-1" d="M92.48,191.2l40.85-26.23c4.3-2.55,8.21,3.49,4.08,6.37-.32.22-43.1,22.24-43.45,22.44-1.68.83-3.06-1.53-1.49-2.58h0Z"/><path class="cls-1" d="M89.12,166.07l40.29-13.16c4.81-1.38,7.06,5.45,2.35,7.2-.63.21-41.27,8.69-41.86,8.85-1.83.35-2.55-2.26-.77-2.89h0Z"/><path class="cls-1" d="M172.98,124.87h10.35c10.1,0,13.81,3.14,13.81,8.77,0,3.45-2.39,6.01-6.1,7.06,4.52.69,7.39,3.03,7.39,7.81,0,6.32-3.77,10.35-13.44,10.35h-12v-33.99h0ZM185.41,138.67c2.97,0,4.89-1.54,4.89-4.57s-2.07-4.09-7.33-4.09h-3.35v8.66h5.79ZM184.66,153.7c4.83,0,6.85-1.65,6.85-5.36,0-3.19-2.07-4.52-5.84-4.52h-6.06v9.88h5.06ZM203.73,132.19h6.01l.05,4.99c1.54-4.25,4.09-5.73,6.32-5.73s3.45,1.22,3.45,3.24-1.33,3.03-3.14,3.03h-1.65c-2.76,0-4.57,1.81-4.57,7.65v13.49h-6.48v-26.66h0ZM220.51,145.52c0-8.29,5.25-14.07,12.64-14.07,7.75,0,12.48,6.01,11.73,15.45h-17.79c.32,4.94,2.39,7.59,6.69,7.59,2.39,0,4.04-.8,6.32-3.66l4.35,2.97c-3.3,4.2-6.8,5.79-11.31,5.79-7.39,0-12.64-5.79-12.64-14.07h0ZM238.47,142.65c-.21-4.14-2.28-6.32-5.36-6.32-3.61,0-5.42,2.07-5.9,6.32h11.26,0ZM248.13,151.63c0-5.1,3.56-7.91,12.59-9.35,2.92-.48,3.56-1.11,3.56-2.55,0-2.33-1.7-4.04-4.41-4.04-5.04,0-4.41,5.2-8.18,5.2-1.81,0-2.92-1.11-2.92-2.92,0-1.17.69-2.39,1.91-3.35,2.18-1.86,5.36-3.19,9.19-3.19,7.12,0,10.88,3.45,10.88,12.21v15.19h-5.73l-.38-4.04c-1.59,3.14-4.04,4.77-7.65,4.77-5.47,0-8.86-3.03-8.86-7.96h0ZM258.23,154.61c4.2,0,6.06-3.08,6.06-6.96v-1.91c-.53.32-1.28.58-3.39.95-4.89.9-6.21,2.28-6.21,4.52s1.43,3.39,3.56,3.39h0ZM276.83,124.87h6.48v17.26l5.1-5.53c3.77-4.09,5.36-4.99,7.39-4.99,1.7,0,2.71,1.06,2.71,2.66,0,1.38-.74,2.02-2.23,2.66-1.28.53-2.07,1.06-4.35,3.29l-3.08,3.03c1.91.43,3.08,1.49,4.94,4.35l7.22,11.26h-7.59l-5.2-8.6c-1.17-1.91-2.01-2.81-3.19-3.24l-1.7,1.7v10.14h-6.48v-33.99h-.01ZM303.23,149.08v-24.22h6.48v7.48c2.18-.16,3.93-.48,5.63-.48s2.87,1.11,2.87,2.92-1.17,2.92-2.87,2.92-3.45-.38-5.63-.53v11.79c0,3.77,1.22,4.94,2.92,4.94,1.17,0,2.28-.32,3.72-1.06l2.02,4.72c-2.55,1.33-4.63,2.01-6.8,2.01-5.58,0-8.34-3.45-8.34-10.52h0v.02ZM328.9,158.85h-6.48v-33.99h6.48v11.52c1.76-3.14,4.63-4.94,8.07-4.94,6.27,0,9.67,3.87,9.67,11.58v15.82h-6.48v-14.87c0-4.68-1.33-7.01-4.72-7.01s-6.53,3.45-6.53,11.21v10.67h0ZM351.91,132.19h6l.05,4.99c1.54-4.25,4.09-5.73,6.32-5.73s3.45,1.22,3.45,3.24-1.33,3.03-3.14,3.03h-1.65c-2.76,0-4.57,1.81-4.57,7.65v13.49h-6.48v-26.66h.01ZM367.8,145.52c0-8.34,5.47-14.07,13.39-14.07s13.38,5.73,13.38,14.07-5.47,14.07-13.38,14.07-13.39-5.73-13.39-14.07ZM381.17,154.39c4.35,0,6.75-3.51,6.75-8.86s-2.39-8.86-6.75-8.86-6.75,3.51-6.75,8.86,2.39,8.86,6.75,8.86ZM398.23,148.02v-15.82h6.48v14.87c0,4.68,1.33,7.01,4.57,7.01,3.56,0,6.37-3.45,6.37-11.21v-10.67h6.48v26.66h-6.37v-4.3c-1.65,3.19-4.52,5.04-8.02,5.04-6.1,0-9.5-3.87-9.5-11.58h0ZM425.28,163.05c0-2.28,1.65-4.04,4.46-4.83-2.07-1.06-3.24-2.66-3.24-4.68,0-2.33,1.43-3.99,4.57-5.36-2.34-1.65-3.66-4.2-3.66-7.33,0-5.58,4.2-9.4,11.1-9.4,2.66,0,4.94.58,6.69,1.59,1.76-2.61,4.2-4.09,6.1-4.09s3.14,1.38,3.14,3.08c0,1.97-1.28,3.03-3.56,3.03h-3.35c1.28,1.54,1.97,3.51,1.97,5.73,0,5.58-4.2,9.45-11,9.45-1.22,0-2.34-.1-3.34-.32-2.02.64-2.66,1.28-2.66,2.23,0,1.11.9,1.81,3.3,1.81h6.53c6.42,0,9.83,2.61,9.83,7.17,0,5.73-4.99,9.08-13.87,9.08s-13.01-2.49-13.01-7.17h-.01ZM438.6,165.76c4.25,0,6.96-1.17,6.96-3.72,0-1.59-1.11-2.55-4.35-2.55h-4.72c-3.99,0-5.42.95-5.42,2.71,0,2.23,2.49,3.56,7.54,3.56h0ZM438.49,145.74c2.92,0,4.83-1.91,4.83-4.89s-1.91-4.89-4.83-4.89-4.83,1.91-4.83,4.89,1.91,4.89,4.83,4.89ZM463.46,158.85h-6.48v-33.99h6.48v11.52c1.76-3.14,4.62-4.94,8.07-4.94,6.27,0,9.67,3.87,9.67,11.58v15.82h-6.48v-14.87c0-4.68-1.33-7.01-4.72-7.01s-6.53,3.45-6.53,11.21v10.67h0ZM502.92,130.44h-9.4v-5.58h23.42c1.7,0,2.82,1.11,2.82,2.81s-1.11,2.76-2.82,2.76h-7.39v28.41h-6.64v-28.41h0ZM529.1,133.21c-1.54,2.87-3.93,4.89-6.15,4.89-1.7,0-2.87-1.17-2.87-2.87,0-1.59,1.01-2.66,3.03-3.3,3.39-1.06,4.52-2.13,7.22-7.06h5.42v33.99h-6.63v-25.65h0ZM543.58,124.87h10.52c9.88,0,17.58,4.52,17.58,17s-7.7,17-17.58,17h-10.52v-33.99h0ZM554.31,153.33c6.1,0,10.46-3.19,10.46-11.48s-4.35-11.52-10.46-11.52h-4.09v22.99h4.09ZM426.4,198.41h2.69v-7.42h7.11v-2.14h-7.11v-5.19h7.59v-2.18h-10.28v16.94h0ZM445.77,187.18c-.84-.49-1.83-.73-2.97-.73s-2.12.24-2.94.73c-.83.49-1.47,1.18-1.93,2.09-.46.91-.69,2-.69,3.28s.24,2.35.69,3.27c.46.92,1.11,1.62,1.93,2.1.83.49,1.81.73,2.94.73s2.13-.24,2.97-.73c.84-.49,1.48-1.19,1.92-2.1.44-.92.66-2.01.66-3.29s-.22-2.35-.66-3.25c-.44-.91-1.08-1.6-1.92-2.09h0ZM444.93,195.59c-.52.68-1.23,1.02-2.13,1.02s-1.59-.34-2.11-1.02c-.52-.68-.8-1.7-.8-3.06s.27-2.38.8-3.04c.52-.66,1.23-1,2.11-1s1.61.33,2.13,1c.52.66.77,1.68.77,3.04s-.26,2.38-.77,3.06ZM456.01,186.45c-1.04.1-1.87.38-2.49.86-.48.38-.8.92-1.05,1.56v-2.19h-2.57v11.73h2.69v-6.49c0-.97.25-1.72.75-2.24.49-.51,1.2-.82,2.11-.92l1.53-.15-.19-2.26-.8.07h.01ZM473.68,186.94c-.54-.32-1.22-.49-2.03-.49-.94,0-1.76.24-2.45.72-.59.41-1,.98-1.3,1.65-.22-.74-.55-1.33-1.06-1.71-.58-.44-1.31-.66-2.21-.66-.61,0-1.16.1-1.65.3-.49.2-.92.5-1.26.9-.25.28-.41.64-.58.99v-1.95h-2.57v11.73h2.64v-6.8c0-.64.11-1.2.32-1.66.22-.46.52-.82.89-1.06s.81-.36,1.31-.36c.66,0,1.13.2,1.42.61.3.4.44,1.07.44,2.02v7.25h2.64v-6.8c0-.64.1-1.2.32-1.66.21-.46.51-.82.89-1.06.38-.24.83-.36,1.32-.36.66,0,1.14.2,1.44.61.3.4.46,1.07.46,2.02v7.25h2.64v-7.4c0-1.06-.14-1.92-.42-2.58s-.69-1.17-1.23-1.49h-.01ZM486.7,189.11c.41.86.61,1.91.61,3.14v.89h-7.98c.04.66.15,1.24.36,1.7.27.59.66,1.03,1.19,1.32.52.29,1.16.44,1.93.44.63,0,1.24-.1,1.85-.3.61-.2,1.17-.52,1.66-.95l.81,1.8c-.55.46-1.21.83-1.99,1.09-.78.27-1.58.39-2.38.39-1.23,0-2.3-.24-3.18-.72-.89-.48-1.58-1.18-2.07-2.09-.49-.92-.73-2-.73-3.27s.24-2.31.71-3.22c.47-.92,1.12-1.62,1.96-2.14.83-.51,1.79-.77,2.86-.77s1.93.23,2.66.68c.74.46,1.31,1.12,1.72,1.99h0ZM479.35,191.54h5.71c-.04-.99-.24-1.79-.64-2.34-.46-.62-1.14-.93-2.03-.93-.66,0-1.22.16-1.67.49-.46.33-.81.8-1.06,1.39-.16.4-.26.87-.31,1.38h0ZM495.29,186.45c-1.04.1-1.87.38-2.49.86-.48.38-.8.92-1.05,1.56v-2.19h-2.57v11.73h2.69v-6.49c0-.97.25-1.72.75-2.24.49-.51,1.2-.82,2.11-.92l1.53-.15-.19-2.26-.8.07h.01ZM502.21,196.44c-.38,0-.72-.08-.99-.24s-.47-.41-.58-.76c-.13-.35-.18-.75-.18-1.22v-12.75h-2.64v12.9c0,1.41.32,2.47.94,3.2.62.72,1.56,1.08,2.81,1.08.27,0,.54-.02.8-.06.27-.04.53-.09.8-.15l.02-2.09c-.13.03-.28.06-.46.07-.18.01-.35.03-.52.03h0ZM508.26,195.26l-3.2-8.57h-2.81l4.62,11.37-2,4.68h2.72l6.6-16.05h-2.69l-3.24,8.57h0ZM522.58,193.84c0,.49-.07.92-.23,1.28s-.38.63-.7.82-.69.3-1.16.32l-1.53.1.19,2.26,1.8-.1c.94-.08,1.74-.3,2.39-.67s1.14-.89,1.46-1.55c.33-.66.49-1.49.49-2.46v-12.37h-2.72v12.37h0ZM541.13,185.31c.65,1.26.97,2.8.97,4.62s-.32,3.37-.97,4.64c-.65,1.26-1.58,2.22-2.81,2.87-1.23.65-2.72.97-4.48.97h-5.86v-16.94h5.86c1.76,0,3.25.32,4.48.97,1.23.65,2.16,1.6,2.81,2.86h0ZM539.25,189.93c0-2.11-.46-3.68-1.38-4.68-.92-1.01-2.32-1.51-4.19-1.51h-3v12.42h3c1.89,0,3.29-.51,4.2-1.53.92-1.02,1.37-2.58,1.37-4.7ZM554.71,193.1l2.69,5.31h-2.98l-2.72-5.38c-.21-.37-.43-.66-.66-.9-.24-.23-.5-.39-.8-.47-.3-.08-.66-.12-1.08-.12h-2.26v6.87h-2.69v-16.94h6.72c1.74,0,3.09.44,4.04,1.32.96.88,1.43,2.1,1.43,3.68,0,1.04-.21,1.93-.63,2.68-.43.75-1.04,1.31-1.85,1.72-.34.17-.73.28-1.14.38.26.08.49.2.72.35.46.33.86.83,1.2,1.51h.02ZM550.51,189.52c1.07,0,1.9-.26,2.46-.77s.86-1.26.86-2.24-.28-1.66-.86-2.15c-.57-.49-1.39-.73-2.46-.73h-3.6v5.89h3.6ZM569.49,183.66v-2.18h-10.28v16.94h2.69v-7.42h7.11v-2.14h-7.11v-5.19h7.59,0ZM576.51,124.94h8.96v1.68h-3.52v9.39h-1.94v-9.39h-3.51v-1.68h0ZM586.41,124.94h2.73l3.06,8.66h.03l2.97-8.66h2.7v11.07h-1.84v-8.54h-.03l-3.07,8.54h-1.59l-3.07-8.54h-.03v8.54h-1.84v-11.07h0Z"/></svg>