<?xml version="1.0" encoding="UTF-8"?><svg id="Layer_1" xmlns="http://www.w3.org/2000/svg" xmlns:xlink="http://www.w3.org/1999/xlink" viewBox="0 0 663.47 269.47"><defs><style>.cls-1{fill:none;}.cls-2{fill:#010028;}.cls-3{clip-path:url(#clippath-1);}.cls-4{clip-path:url(#clippath-2);}.cls-5{opacity:.79;}.cls-6{clip-path:url(#clippath);}</style><clipPath id="clippath"><rect class="cls-1" x="518.19" y="-1467.61" width="928.9" height="434.48"/></clipPath><clipPath id="clippath-1"><rect class="cls-1" x="519.88" y="-1917.19" width="2828.71" height="1555.61"/></clipPath><clipPath id="clippath-2"><rect class="cls-1" x="799.56" y="-1917.19" width="2828.71" height="1555.61"/></clipPath></defs><g class="cls-6"><g class="cls-3"><image width="4500" height="3000" transform="translate(487.21 -1934.14) scale(.65 .67)" xlink:href="8vo/PT II/Elementos_Diseño/Fractal-Glass-Gradients/Product Files/4.jpg"/></g><g class="cls-5"><g class="cls-4"><image width="4345" height="4474" transform="translate(4077.18 -2376.38) rotate(90) scale(.58 .83)" xlink:href="8vo/PT II/Elementos_Diseño/Displaced Gradient Spheres/9.png"/></g></g></g><path class="cls-2" d="M370.19,145.13c8.53,2.56,18.42-.8,18.42-10.79,0-4.3-.3-12.88-7.69-12.88h-14.42v36.98h-13.31v-30.7c0-8.3-14.79-9.21-14.79.74v15.9h-13.31v-18.12c0-6.81-14.05-5.86-14.05-.74v32.91h-13.31v-27.74c0-10.52-17.56-13.37-21.82-2.59-4.69,11.88,5.94,21.85,17.39,16.27v12.94c-2.95,1.99-7.7,2.12-11.28,1.65-30.98-4.05-25.16-58.41,11.43-49.88,2.2.51,7.8,3.43,8.35,3.45,1.29.04,5.22-2.55,7.19-3.15,9.27-2.83,16.47-.71,23.15,6.13,3.33-3.84,8.18-6.83,13.31-7.39,7.94-.86,26.01-.78,34.02.01,18.11,1.8,26.77,22.35,19.51,37.99-4.9,10.55-18.22,16.05-28.75,11.19v-12.2Z"/></svg>