<?xml version="1.0" encoding="UTF-8"?><svg id="Layer_1" xmlns="http://www.w3.org/2000/svg" viewBox="0 0 663.47 269.47"><defs><style>.cls-1{fill:#010028;}</style></defs><path class="cls-1" d="M237.15,131.48c-4.12,11.37-12.88,21.65-24.14,26.34-.79,0,2.13-6.89,2.36-7.43,1.53-3.52,3.6-6.86,5.19-10.35,1.57-3.45,7.92-15.2.21-15.35-2.23-.04-6.02,2.93-7.76,4.42-7.57,6.51-14.28,15.06-21.61,21.95-1.41,1.32-2.75,2.77-4.4,3.7.57-1.89,1.35-3.81,2.14-5.62,2.68-6.13,9.86-18.2,8.82-24.57-.35-2.15-2.48-3.42-4.51-3.2-4.54.47-14.55,9.97-18.11,13.31-1.05.98-5.2,5.61-5.91,5.91-.41.18-.63-.08-.5-.5l8.73-13.59v-.72c-1.37-.27-3.68-3.02-4.87-2.1-2.96,4.05-6.31,7.02-10.97,8.96-1.48.61-4.4,1.69-5.9,1.87-2.15.26-4.72-.19-6.92,0l-.34,5.74c2.15-.12,4.45.17,6.58,0,2.73-.22,5.24-1.4,7.94-1.68l-14.81,23.76,4.21,3.57c.45.08,3.33-2.98,3.85-3.51,9.12-9.41,17.86-19.35,27.68-28.04,2.33-2.06,4.83-3.97,7.27-5.9.38.99-.32,2.39-.68,3.37-2.36,6.38-6.12,12.67-8.66,19.03-1.31,3.28-4.35,9.26-.36,11.7,4.33,2.65,9.85-4.61,13.14-6.86l21.56-21.83.5.5c-2.21,5.25-5.5,10.4-7.72,15.58-4.07,9.51-2.81,17.84,9.3,12l7.54-4.78-3.04,7.08c.32.44,4.71.44,5.5.27,1.85-.41,3.21-5.31,3.96-7.02h10.3l.51.51v6.25l5.76.19.27-.41-.63-32.54h-11.48ZM242.89,151.4h-7.77c1.77-5.3,4.47-10.37,6.5-15.62l1.27-.93v16.55Z"/><path class="cls-1" d="M332.89,131.48c-1.4,1.24-2.64,12.09-3.21,12.49-1.04-.18-4.52-1.94-4.69-2.92,2.7-5.07,7.99-9.37,3.96-15.43-2.58-3.88-8.01-4.32-11.59-1.57-4.98,3.83-2.85,12.74.12,17.33-2.6,3.7-10.85,16.36-15.13,16.98-3.23.47-2.83-5.54-2.73-7.48.35-6.35,2.76-11.18,3.99-16.95.08-.4.23-1.52.04-1.74l-5.32-1.35c-1.43,5.07-5.05,9.94-9.87,12.25-1.08.52-4.46,1.76-5.53,1.9-2.23.28-4.97-.21-7.26,0v5.57c.3.48.67.47,1.16.52,2.92.34,8.34-.46,11.17-1.36.91-.29,5.61-2.67,5.9-2.37-.55,5.15-1.04,13.64,4.6,16.16,7.81,3.49,15.05-6.41,19.18-11.81,1.22-1.6,2.34-3.59,3.57-5.23l.46-.12,6.62,3.9-2.63,13.92,20.89.05v-5.74h-13.51l1.35-7.43h13.85c-.18-.43.34-1,.34-1.18v-4.9h-12.83l1.35-7.43h14.86v-5.57l-.51-.51h-18.57ZM324.48,130.48c-.11.73-2.06,3.76-2.62,4.49-.29.37-.34.7-.95.56.01-1.9-1.91-6.72.93-7.35,1.42-.32,2.85.88,2.64,2.29Z"/><path class="cls-1" d="M362.33,138.3c-.94,3.9.07,8.58,3.8,10.59,2.56,1.38,10.04,1.49,10.73,4.45,1.12,4.83-4.26,6.39-8.03,5.67-4.01-.76-3.86-3.87-3.7-7.27h-5.91l-.51.51v5.4c0,.15.99,2.54,1.2,2.85,4.59,7.11,20.12,5.69,23.1-2.53,1.58-4.37.86-9.37-3.46-11.7-2.76-1.49-9.36-1.69-10.66-4.2-1.36-2.62,1.44-4.83,3.87-5.16,4.31-.59,7.32,1.47,6.56,6.05h5.91c.8-1.08.66-3.79.43-5.15-1.57-9.25-21.02-9.12-23.33.49Z"/><path class="cls-1" d="M465.07,131.63l-.25.42-6.48,32.19h13c3.3,0,7.44-3.43,8.91-6.29,1.34-2.62,3.78-13.13,4.06-16.21.21-2.21-.62-5.31-1.99-7.05-3.37-4.26-12.42-3.14-17.24-3.06ZM477.93,141.76c-.08,2.33-2.16,11.34-3.2,13.37-2,3.87-5.45,3.37-9.3,3.36l4.4-20.92c3.45-.11,8.27-.62,8.1,4.19Z"/><path class="cls-1" d="M503.08,131.48l-14.68,32.59c.05.9,5.78.58,6.73-.02l3.22-6.57h10.3l.34,6.76,6.08.34-.68-33.1h-11.31ZM508.66,151.4h-7.77l6.73-16.34,1.04-.21v16.55Z"/><path class="cls-1" d="M430.31,136.72c0,.08-.27.2-.26.34l.43.51h6.92l-4.05,20.94h-7.77v5.23l.51.51h21.11v-5.74h-7.43l4.05-20.94h7.77v-6.08h-21.27v5.23Z"/><polygon class="cls-1" points="395.87 131.48 395.87 137.56 404.31 137.56 398.91 164.24 404.82 164.24 410.73 137.56 419.51 137.56 419.51 131.99 419 131.48 395.87 131.48"/><polygon class="cls-1" points="271.94 131.48 265.86 131.48 259.1 164.24 280.21 164.24 280.72 163.73 280.72 158.5 266.53 158.5 271.94 131.48"/></svg>